<mxfile host="app.diagrams.net" agent="Mozilla/5.0 (X11; Linux x86_64) AppleWebKit/537.36 (KHTML, like Gecko) Chrome/134.0.0.0 Safari/537.36 Edg/134.0.0.0" version="27.0.5">
  <diagram name="Page-1" id="muHeA2wIN7Br0-n2upKL">
    <mxGraphModel dx="1352" dy="1868" grid="1" gridSize="10" guides="1" tooltips="1" connect="1" arrows="1" fold="1" page="1" pageScale="1" pageWidth="850" pageHeight="1100" math="0" shadow="0">
      <root>
        <mxCell id="0" />
        <mxCell id="1" parent="0" />
        <mxCell id="XhsEv_M7SDo-VLpMQ4_O-64" style="edgeStyle=orthogonalEdgeStyle;rounded=0;orthogonalLoop=1;jettySize=auto;html=1;exitX=1;exitY=0.5;exitDx=0;exitDy=0;entryX=0;entryY=0.5;entryDx=0;entryDy=0;" edge="1" parent="1" source="XhsEv_M7SDo-VLpMQ4_O-75" target="XhsEv_M7SDo-VLpMQ4_O-55">
          <mxGeometry relative="1" as="geometry">
            <mxPoint x="160" y="-940" as="sourcePoint" />
          </mxGeometry>
        </mxCell>
        <mxCell id="XhsEv_M7SDo-VLpMQ4_O-65" style="edgeStyle=orthogonalEdgeStyle;rounded=0;orthogonalLoop=1;jettySize=auto;html=1;exitX=0.5;exitY=1;exitDx=0;exitDy=0;entryX=0.5;entryY=0;entryDx=0;entryDy=0;" edge="1" parent="1" source="XhsEv_M7SDo-VLpMQ4_O-55" target="XhsEv_M7SDo-VLpMQ4_O-56">
          <mxGeometry relative="1" as="geometry" />
        </mxCell>
        <mxCell id="XhsEv_M7SDo-VLpMQ4_O-55" value="Title Screening" style="rounded=1;whiteSpace=wrap;html=1;" vertex="1" parent="1">
          <mxGeometry x="200" y="-970" width="120" height="60" as="geometry" />
        </mxCell>
        <mxCell id="XhsEv_M7SDo-VLpMQ4_O-66" style="edgeStyle=orthogonalEdgeStyle;rounded=0;orthogonalLoop=1;jettySize=auto;html=1;exitX=0.5;exitY=1;exitDx=0;exitDy=0;entryX=0.5;entryY=0;entryDx=0;entryDy=0;" edge="1" parent="1" source="XhsEv_M7SDo-VLpMQ4_O-56" target="XhsEv_M7SDo-VLpMQ4_O-57">
          <mxGeometry relative="1" as="geometry" />
        </mxCell>
        <mxCell id="XhsEv_M7SDo-VLpMQ4_O-56" value="Duplicate Removal" style="rounded=1;whiteSpace=wrap;html=1;" vertex="1" parent="1">
          <mxGeometry x="200" y="-870" width="120" height="60" as="geometry" />
        </mxCell>
        <mxCell id="XhsEv_M7SDo-VLpMQ4_O-67" style="edgeStyle=orthogonalEdgeStyle;rounded=0;orthogonalLoop=1;jettySize=auto;html=1;exitX=0.5;exitY=1;exitDx=0;exitDy=0;entryX=0.5;entryY=0;entryDx=0;entryDy=0;" edge="1" parent="1" source="XhsEv_M7SDo-VLpMQ4_O-57" target="XhsEv_M7SDo-VLpMQ4_O-58">
          <mxGeometry relative="1" as="geometry" />
        </mxCell>
        <mxCell id="XhsEv_M7SDo-VLpMQ4_O-57" value="Abstract Screening" style="rounded=1;whiteSpace=wrap;html=1;" vertex="1" parent="1">
          <mxGeometry x="200" y="-770" width="120" height="60" as="geometry" />
        </mxCell>
        <mxCell id="XhsEv_M7SDo-VLpMQ4_O-72" style="edgeStyle=orthogonalEdgeStyle;rounded=0;orthogonalLoop=1;jettySize=auto;html=1;exitX=1;exitY=0.5;exitDx=0;exitDy=0;entryX=0;entryY=0.5;entryDx=0;entryDy=0;curved=1;" edge="1" parent="1" source="XhsEv_M7SDo-VLpMQ4_O-58" target="XhsEv_M7SDo-VLpMQ4_O-59">
          <mxGeometry relative="1" as="geometry" />
        </mxCell>
        <mxCell id="XhsEv_M7SDo-VLpMQ4_O-58" value="Full-Text Screening" style="rounded=1;whiteSpace=wrap;html=1;" vertex="1" parent="1">
          <mxGeometry x="200" y="-670" width="120" height="60" as="geometry" />
        </mxCell>
        <mxCell id="XhsEv_M7SDo-VLpMQ4_O-69" style="edgeStyle=orthogonalEdgeStyle;rounded=0;orthogonalLoop=1;jettySize=auto;html=1;exitX=0.5;exitY=1;exitDx=0;exitDy=0;entryX=0.5;entryY=0;entryDx=0;entryDy=0;" edge="1" parent="1" source="XhsEv_M7SDo-VLpMQ4_O-59" target="XhsEv_M7SDo-VLpMQ4_O-74">
          <mxGeometry relative="1" as="geometry">
            <mxPoint x="460" y="-870" as="targetPoint" />
          </mxGeometry>
        </mxCell>
        <mxCell id="XhsEv_M7SDo-VLpMQ4_O-59" value="Coding" style="rounded=1;whiteSpace=wrap;html=1;" vertex="1" parent="1">
          <mxGeometry x="380" y="-970" width="120" height="60" as="geometry" />
        </mxCell>
        <mxCell id="XhsEv_M7SDo-VLpMQ4_O-70" value="&lt;b&gt;&lt;font style=&quot;font-size: 13px;&quot;&gt;Yes&lt;/font&gt;&lt;/b&gt;" style="edgeStyle=orthogonalEdgeStyle;rounded=0;orthogonalLoop=1;jettySize=auto;html=1;exitX=0.5;exitY=1;exitDx=0;exitDy=0;" edge="1" parent="1" source="XhsEv_M7SDo-VLpMQ4_O-74" target="XhsEv_M7SDo-VLpMQ4_O-61">
          <mxGeometry relative="1" as="geometry">
            <mxPoint x="440" y="-790" as="sourcePoint" />
          </mxGeometry>
        </mxCell>
        <mxCell id="XhsEv_M7SDo-VLpMQ4_O-71" value="No" style="edgeStyle=orthogonalEdgeStyle;rounded=0;orthogonalLoop=1;jettySize=auto;html=1;exitX=1;exitY=0.5;exitDx=0;exitDy=0;entryX=0.5;entryY=1;entryDx=0;entryDy=0;curved=1;fontStyle=1;spacing=0;fontSize=13;" edge="1" parent="1" source="XhsEv_M7SDo-VLpMQ4_O-74" target="XhsEv_M7SDo-VLpMQ4_O-62">
          <mxGeometry x="-0.2558" y="25" relative="1" as="geometry">
            <mxPoint x="500" y="-820" as="sourcePoint" />
            <mxPoint as="offset" />
          </mxGeometry>
        </mxCell>
        <mxCell id="XhsEv_M7SDo-VLpMQ4_O-73" style="edgeStyle=orthogonalEdgeStyle;rounded=0;orthogonalLoop=1;jettySize=auto;html=1;exitX=1;exitY=0.5;exitDx=0;exitDy=0;entryX=0;entryY=0.5;entryDx=0;entryDy=0;" edge="1" parent="1" source="XhsEv_M7SDo-VLpMQ4_O-61">
          <mxGeometry relative="1" as="geometry">
            <mxPoint x="560" y="-640" as="targetPoint" />
          </mxGeometry>
        </mxCell>
        <mxCell id="XhsEv_M7SDo-VLpMQ4_O-61" value="Analysis and Interpretation of Findings" style="rounded=1;whiteSpace=wrap;html=1;" vertex="1" parent="1">
          <mxGeometry x="380" y="-670" width="120" height="60" as="geometry" />
        </mxCell>
        <mxCell id="XhsEv_M7SDo-VLpMQ4_O-68" style="edgeStyle=orthogonalEdgeStyle;rounded=0;orthogonalLoop=1;jettySize=auto;html=1;exitX=0.5;exitY=0;exitDx=0;exitDy=0;entryX=0.5;entryY=0;entryDx=0;entryDy=0;curved=1;" edge="1" parent="1" source="XhsEv_M7SDo-VLpMQ4_O-62" target="XhsEv_M7SDo-VLpMQ4_O-55">
          <mxGeometry relative="1" as="geometry">
            <Array as="points">
              <mxPoint x="620" y="-1040" />
              <mxPoint x="260" y="-1040" />
            </Array>
          </mxGeometry>
        </mxCell>
        <mxCell id="XhsEv_M7SDo-VLpMQ4_O-62" value="Citation Chaining" style="rounded=1;whiteSpace=wrap;html=1;" vertex="1" parent="1">
          <mxGeometry x="560" y="-970" width="120" height="60" as="geometry" />
        </mxCell>
        <mxCell id="XhsEv_M7SDo-VLpMQ4_O-74" value="Is the Thematic &lt;br&gt;Saturation Met?" style="rhombus;verticalAlign=middle;labelBorderColor=none;labelBackgroundColor=none;textShadow=0;whiteSpace=wrap;html=1;fillColor=#ffe6cc;strokeColor=#d79b00;" vertex="1" parent="1">
          <mxGeometry x="370" y="-850" width="140" height="90" as="geometry" />
        </mxCell>
        <mxCell id="XhsEv_M7SDo-VLpMQ4_O-75" value="Initial Search" style="ellipse;whiteSpace=wrap;html=1;fillColor=#d5e8d4;strokeColor=#82b366;" vertex="1" parent="1">
          <mxGeometry x="30" y="-970" width="130" height="60" as="geometry" />
        </mxCell>
        <mxCell id="XhsEv_M7SDo-VLpMQ4_O-76" value="Theme Development" style="ellipse;whiteSpace=wrap;html=1;fillColor=#f8cecc;strokeColor=#b85450;" vertex="1" parent="1">
          <mxGeometry x="560" y="-670" width="130" height="60" as="geometry" />
        </mxCell>
      </root>
    </mxGraphModel>
  </diagram>
</mxfile>
